PathFileType	4	(X/Y/Z)	C:/Users/opensim2020/Desktop/walking_exp_matlab/subject02_walking06_straight_01.trc																																																																																																																									
DataRate	CameraRate	NumFrames	NumMarkers	Units	OrigDataRate	OrigDataStartFrame	OrigNumFrames																																																																																																																					
100	100	8	41	mm	100	755	205																																																																																																																					
Frame#	Time	LFHD			RFHD			LBHD			RBHD			C7			T10			CLAV			STRN			RBAK			LSHO			LUPA			LELB			LFRM			LWRA			LWRB			LFIN			RSHO			RUPA			RELB			RFRM			RWRA			RWRB			RFIN			LASI			RASI			LPSI			RPSI			LTHI			LKNE			LTIB			LANK			LHEE			LTOE			RTHI			RKNE			RTIB			RANK			RHEE			RTOE			*39			*40		
		X1	Y1	Z1	X2	Y2	Z2	X3	Y3	Z3	X4	Y4	Z4	X5	Y5	Z5	X6	Y6	Z6	X7	Y7	Z7	X8	Y8	Z8	X9	Y9	Z9	X10	Y10	Z10	X11	Y11	Z11	X12	Y12	Z12	X13	Y13	Z13	X14	Y14	Z14	X15	Y15	Z15	X16	Y16	Z16	X17	Y17	Z17	X18	Y18	Z18	X19	Y19	Z19	X20	Y20	Z20	X21	Y21	Z21	X22	Y22	Z22	X23	Y23	Z23	X24	Y24	Z24	X25	Y25	Z25	X26	Y26	Z26	X27	Y27	Z27	X28	Y28	Z28	X29	Y29	Z29	X30	Y30	Z30	X31	Y31	Z31	X32	Y32	Z32	X33	Y33	Z33	X34	Y34	Z34	X35	Y35	Z35	X36	Y36	Z36	X37	Y37	Z37	X38	Y38	Z38	X39	Y39	Z39	X40	Y40	Z40	X41	Y41	Z41
																																																																																																																												
1	0	-1037.17175	1727.52478	1328.07312	-1054.81238	1704.80969	1470.20679	-1158.34583	1643.05786	1300.60303	-1188.42102	1617.36902	1438.81665	-1217.75391	1512.58923	1361.63831	-1298.2196	1245.69702	1370.63953	-1086.97131	1431.94788	1362.10034	-1054.50964	1254.46448	1369.62146	-1298.28833	1348.81189	1422.0238	-1127.13159	1483.1012	1188.38696	-1120.76807	1284.10913	1098.27429	-1101.64404	1141.85291	1083.35815	-1043.86084	1021.11737	1094.8125	-953.90808	936.12732	1158.56287	-989.11066	913.81738	1118.80164	-943.09436	867.4679	1128.05127	-1157.54016	1469.71509	1553.63062	-1217.55298	1290.12976	1639.62219	-1218.02417	1144.93567	1670.67603	-1187.73645	1028.53601	1694.94348	-1135.04993	903.12024	1677.6543	-1180.79529	898.22125	1709.42639	-1140.25916	838.53558	1714.31445	-1094.06189	960.46191	1237.35913	-1078.0332	959.39453	1494.1969	-1296.28052	1021.59998	1328.97876	-1295.76563	1022.43146	1444.37183	-1214.38745	658.09033	1210.03503	-1284.26575	467.27573	1248.69641	-1379.68079	297.02808	1253.05371	-1422.87085	77.15034	1298.94897	-1466.71179	56.42149	1348.12549	-1271.55872	24.42166	1300.27808	-1101.92834	671.81085	1594.81799	-1025.44775	477.47195	1567.01477	-1000.47412	294.35831	1590.51782	-942.15039	105.81791	1576.6748	-948.79889	40.05153	1522.49805	-780.48254	102.82894	1596.24634	-1154.23535	1781.67676	1404.8125	NaN	NaN	NaN
2	0.01	-1029.18213	1726.62146	1330.72205	-1046.70251	1703.54114	1472.75	-1150.19836	1642.05334	1303.11487	-1180.34607	1616.0824	1441.26245	-1209.67676	1511.48816	1364.10339	-1290.05505	1244.59875	1373.39966	-1078.84387	1430.80347	1364.0946	-1046.09583	1253.42517	1371.34961	-1290.10522	1347.64307	1424.49438	-1119.66382	1482.2511	1190.55225	-1113.09351	1283.11401	1100.52295	-1094.07056	1140.97876	1085.42615	-1036.11157	1020.41785	1096.99377	-946.46118	935.25171	1161.02295	-980.68823	912.94189	1121.05896	-935.16675	866.73254	1130.26697	-1148.99768	1468.35632	1555.92981	-1210.05981	1288.95459	1641.49902	-1211.53845	1143.78552	1672.35767	-1182.25256	1027.19214	1696.77393	-1130.34412	901.3186	1679.62585	-1176.28918	896.87488	1711.24365	-1136.18018	836.77417	1716.20105	-1086.94531	959.37976	1238.64087	-1068.98425	958.0014	1495.33484	-1288.6637	1020.81036	1331.8158	-1287.0658	1021.37769	1447.26477	-1209.49646	657.90656	1211.15454	-1280.19128	467.3237	1249.64734	-1377.22827	298.03903	1253.77515	-1422.38635	78.283	1299.06433	-1466.51294	58.32951	1348.00916	-1271.55994	24.46006	1300.19666	-1093.19202	670.15845	1595.76599	-1016.75317	475.74698	1566.85266	-988.71423	293.4725	1590.6283	-927.32849	106.07681	1577.03442	-933.12579	39.90667	1523.12439	-765.25739	105.22181	1595.01331	-1146.15979	1780.34546	1407.56226	NaN	NaN	NaN
3	0.02	-1020.92908	1725.52332	1333.60046	-1038.54883	1702.21448	1475.43518	-1142.09387	1641.08167	1305.7157	-1172.11694	1614.71692	1443.77014	-1201.44788	1510.2887	1366.64355	-1281.74463	1243.43567	1376.27051	-1070.65662	1429.65479	1366.18018	-1038.03955	1252.19226	1372.89111	-1281.58679	1346.22339	1426.99963	-1112.09009	1481.30981	1192.81311	-1105.44678	1282.0144	1102.67737	-1086.03528	1139.82642	1088.01672	-1028.27979	1019.3764	1099.3241	-939.69226	934.0451	1163.16089	-973.37872	912.06061	1123.13293	-927.99249	865.65442	1132.25427	-1140.51196	1466.98755	1558.3457	-1202.54517	1287.75964	1643.54846	-1204.81189	1142.56177	1674.17651	-1176.47839	1025.75183	1698.64929	-1125.49146	899.44458	1681.646	-1171.57349	895.41809	1713.10376	-1132.09583	834.99786	1718.2301	-1079.44202	958.31079	1240.0387	-1060.00977	956.59351	1496.505	-1280.71082	1019.72772	1334.75342	-1278.19531	1020.11914	1450.16492	-1204.52612	657.67645	1212.23657	-1275.95166	467.40726	1250.52161	-1374.6123	299.14633	1254.50903	-1421.84424	79.60892	1299.16345	-1466.02588	60.02524	1348.23499	-1271.52844	24.37293	1300.14636	-1084.15576	668.45361	1596.69629	-1007.61926	474.46054	1567.00317	-977.48267	292.55292	1590.76733	-913.8515	105.75182	1576.86292	-919.05743	39.35936	1522.91663	-751.5387	106.45228	1594.13721	-1138.03333	1779.05762	1410.44885	NaN	NaN	NaN
4	0.03	-1012.8692	1724.6864	1336.34473	-1030.30444	1700.91248	1478.20483	-1133.76575	1640.06287	1308.38086	-1163.81604	1613.39502	1446.37756	-1193.13928	1509.09973	1369.29993	-1273.29468	1242.26697	1379.17456	-1062.29822	1428.50903	1368.43689	-1029.9248	1250.9043	1374.48474	-1273.25964	1345.1936	1429.77637	-1104.41101	1480.36609	1195.16882	-1097.87634	1281.09216	1105.13428	-1078.65833	1138.85657	1090.37964	-1020.97052	1018.38513	1101.57764	-932.46625	932.68976	1165.01038	-966.0188	910.85699	1125.25623	-920.72668	864.32867	1134.24963	-1131.71826	1465.55481	1560.96265	-1194.84937	1286.52332	1645.67493	-1197.97864	1141.37402	1676.07568	-1170.52136	1024.28918	1700.59033	-1120.43042	897.65436	1683.80774	-1166.6532	893.9245	1715.07874	-1127.52612	833.12091	1720.29883	-1072.07703	957.23224	1241.43555	-1050.80249	955.22076	1497.88928	-1272.63318	1018.61896	1337.78723	-1269.27393	1018.87408	1453.12964	-1198.90125	657.12146	1213.60889	-1271.47266	467.48373	1251.42578	-1371.93555	300.27359	1255.28735	-1421.19458	80.87624	1299.22815	-1465.6228	61.84226	1348.31348	-1271.53027	24.33985	1300.08765	-1074.85083	666.96405	1597.83228	-998.06213	473.22592	1567.41028	-966.73114	291.51505	1590.80847	-901.86816	104.87225	1576.18774	-906.99768	38.68158	1522.24951	-739.6076	106.35071	1593.2262	-1130.08752	1778.08264	1413.51782	2845.82275	1033.94849	-3356.88159
5	0.04	-1004.57794	1723.62585	1339.3363	-1022.00311	1699.69739	1481.09045	-1125.41345	1639.06995	1311.18701	-1155.42346	1612.04944	1449.08203	-1184.74634	1507.97961	1372.14172	-1264.70972	1241.06079	1382.14001	-1053.76208	1427.34521	1370.80627	-1021.33661	1249.68103	1376.4093	-1264.68091	1343.83484	1432.50159	-1096.54834	1479.39087	1197.66736	-1090.13892	1279.99561	1107.73315	-1071.16626	1137.96973	1092.82629	-1013.56177	1016.8089	1104.00146	-925.21265	930.70184	1167.46423	-958.89984	909.18817	1127.26233	-913.94537	862.58649	1136.23706	-1123.02136	1463.96008	1563.47742	-1187.01257	1285.20459	1647.78809	-1190.94507	1140.12012	1678.04602	-1164.47388	1022.85541	1702.62048	-1115.21423	895.8501	1686.01221	-1161.52954	892.41461	1717.10876	-1123.18298	831.50122	1722.48828	-1064.46899	956.05725	1242.83044	-1041.4165	953.849	1499.29565	-1264.34705	1017.39856	1340.81262	-1260.21094	1017.62115	1456.12488	-1193.52881	657.06738	1214.88892	-1266.73828	467.45395	1252.41248	-1368.97546	301.34631	1255.98389	-1420.50122	82.26144	1299.19446	-1464.6698	63.20474	1348.21106	-1271.49963	24.3453	1299.99048	-1064.97192	665.59729	1598.93884	-988.10431	472.21033	1568.1095	-956.5686	290.26782	1590.78455	-891.69312	103.66482	1575.34717	-897.00708	37.65588	1521.03345	-729.40735	105.16335	1592.40698	-1121.72595	1776.66333	1416.51501	NaN	NaN	NaN
6	0.05	-996.2915	1722.70496	1342.30554	-1013.58398	1698.39197	1484.03296	-1117.04675	1637.96802	1314.05945	-1146.93591	1610.70154	1451.93909	-1176.16211	1506.74963	1375.0481	-1255.99084	1239.85767	1385.14307	-1045.19543	1426.15405	1373.23669	-1012.54291	1248.62915	1378.50256	-1256.00183	1342.50098	1435.30005	-1088.49365	1478.4458	1200.26843	-1082.51917	1278.87024	1110.35376	-1063.93457	1137.06494	1095.41699	-1006.68738	1015.49359	1106.31531	-918.79303	929.04236	1169.51563	-952.41223	907.48553	1129.28467	-907.76404	860.63538	1137.90308	-1114.22949	1462.57849	1566.29333	-1179.05652	1283.85437	1650.01807	-1183.72107	1138.78223	1680.10767	-1158.15564	1021.34698	1704.73694	-1109.75061	894.08624	1688.41492	-1156.30054	890.88599	1719.37402	-1118.38306	829.5921	1724.69922	-1056.74927	954.97644	1244.32336	-1032.33301	952.36414	1500.65552	-1255.77161	1016.1084	1344.00684	-1251.06335	1016.33893	1459.14807	-1187.5647	656.48993	1216.20703	-1261.6825	467.41943	1253.38586	-1365.70984	302.50079	1256.56702	-1419.78601	83.99068	1299.02991	-1464.38257	65.77288	1347.90723	-1271.48035	24.27913	1299.9585	-1054.42847	664.32166	1600.21277	-978.03363	471.11966	1568.73828	-947.04541	288.82599	1590.7113	-883.06586	102.0705	1574.29492	-888.461	36.27892	1519.81787	-720.87335	102.69065	1591.47253	-1113.61682	1775.61633	1419.72595	2845.98486	1033.85498	-3356.80029
7	0.06	-987.79419	1721.65601	1345.40662	-1005.10614	1697.16516	1487.03906	-1108.46509	1636.91016	1317.0448	-1138.3811	1609.33521	1454.88281	-1167.495	1505.58191	1378.06519	-1247.07922	1238.58301	1388.13538	-1036.48267	1425.00745	1375.78931	-1004.01166	1247.35925	1380.495	-1247.12317	1341.25391	1438.23499	-1080.29907	1477.49902	1202.98181	-1074.67297	1277.703	1113.19495	-1056.28638	1135.87891	1098.48279	-1000.04114	1013.96161	1108.63599	-911.76898	926.63971	1171.26599	-946.7774	905.72192	1130.7384	-901.97272	858.396	1139.47742	-1105.38623	1461.13696	1569.14734	-1170.91235	1282.51074	1652.38354	-1176.31921	1137.4635	1682.23999	-1151.65076	1019.85034	1706.94556	-1104.18555	892.07733	1690.7489	-1151.01575	889.53345	1721.55444	-1113.42578	827.85706	1727.1604	-1048.84631	953.84302	1245.95459	-1022.24219	951.34393	1502.49622	-1247.04639	1014.7771	1347.19714	-1241.72351	1015.065	1462.21143	-1181.43262	656.23328	1217.49292	-1256.19739	467.3736	1254.34766	-1362.00574	303.67429	1257.0282	-1418.86182	85.65856	1298.74304	-1463.7229	68.02418	1347.57605	-1271.41724	24.21956	1299.88904	-1043.67053	663.24939	1601.84241	-967.75012	470.05722	1569.36902	-938.1405	287.15256	1590.53052	-875.92285	100.02695	1573.09937	-882.01447	34.55616	1518.29883	-713.90405	99.20524	1590.27295	-1105.16846	1774.18213	1422.85437	2845.24512	1033.7843	-3360.33667
8	0.07	-979.31451	1720.70569	1348.61804	-996.55023	1695.99695	1490.1886	-1099.88232	1635.79968	1320.14673	-1129.72583	1608.05273	1457.97559	-1158.70996	1504.448	1381.13867	-1238.05823	1237.36121	1391.1886	-1027.6095	1423.86279	1378.53418	-994.72137	1246.40588	1383.00769	-1238.14258	1339.90027	1441.19531	-1071.91272	1476.56323	1205.78687	-1066.63257	1276.67236	1116.2168	-1048.97437	1134.724	1101.48303	-993.51538	1012.40985	1111.20715	-905.88391	923.94568	1172.92896	-940.63184	903.5686	1132.88831	-896.73999	856.01923	1140.77039	-1096.45215	1459.67566	1572.02014	-1162.40515	1281.17493	1654.64038	-1168.93958	1136.40271	1684.59412	-1145.01343	1018.4209	1709.2439	-1098.41443	890.40967	1693.40112	-1145.36133	888.05499	1723.89111	-1108.32751	826.13153	1729.61536	-1040.69788	952.7171	1247.68884	-1010.89044	950.65558	1505.09949	-1238.13965	1013.48932	1350.45532	-1232.19519	1013.80603	1465.31042	-1174.62939	655.67133	1219.04529	-1250.19202	467.2453	1255.25708	-1357.8429	304.81958	1257.41272	-1417.80591	87.56314	1298.37769	-1462.8562	70.62322	1347.06824	-1271.38721	24.22597	1299.78894	-1032.15198	662.46021	1603.56873	-957.44611	468.82837	1570.09717	-929.87665	285.32538	1590.28198	-870.07709	97.60325	1571.64246	-876.99579	32.43513	1516.67224	-708.30603	94.9185	1588.83386	-1096.93005	1773.20142	1426.18713	2845.12598	1033.93298	-3360.24829
